HIERARCHY
ROOT Pelvis
{
	OFFSET 0.000000 0.000000 0.000000
	CHANNELS 6 Xposition Yposition Zposition Xrotation Yrotation Zrotation
	JOINT LeftUpLeg_virtual
	{
		OFFSET 0.000000 0.000000 0.000000
		CHANNELS 3 Xrotation Yrotation Zrotation
		JOINT LeftUpLeg
		{
			OFFSET 18.735201 -5.666702 -4.541200
			CHANNELS 3 Xrotation Yrotation Zrotation
			JOINT LeftLeg
			{
				OFFSET -0.021200 -31.938179 0.493100
				CHANNELS 3 Xrotation Yrotation Zrotation
				JOINT LeftFoot
				{
					OFFSET 0.021200 -31.938179 -4.336299
					CHANNELS 3 Xrotation Yrotation Zrotation
					JOINT LeftToeBase
					{
						OFFSET 0.943001 -26.722000 15.023500
						CHANNELS 3 Xrotation Yrotation Zrotation
						End Site
						{
							OFFSET 0 0 0
						}
					}
				}
			}
		}
	}
	JOINT RightUpLeg_virtual
	{
		OFFSET 0.000000 0.000000 0.000000
		CHANNELS 3 Xrotation Yrotation Zrotation
		JOINT RightUpLeg
		{
			OFFSET -18.735201 -5.666702 -4.541200
			CHANNELS 3 Xrotation Yrotation Zrotation
			JOINT RightLeg
			{
				OFFSET 0.018946 -31.938133 0.493100
				CHANNELS 3 Xrotation Yrotation Zrotation
				JOINT RightFoot
				{
					OFFSET -0.018946 -31.938126 -4.336299
					CHANNELS 3 Xrotation Yrotation Zrotation
					JOINT RightToeBase
					{
						OFFSET -0.943001 -26.722004 15.023500
						CHANNELS 3 Xrotation Yrotation Zrotation
						End Site
						{
							OFFSET 0 0 0
						}
					}
				}
			}
		}
	}
	JOINT Hips_virtual
	{
		OFFSET 0.000000 0.000000 0.000000
		CHANNELS 3 Xrotation Yrotation Zrotation
		JOINT Hips
		{
			OFFSET -0.000000 -0.000000 -0.000000
			CHANNELS 3 Xrotation Yrotation Zrotation
			JOINT Spine
			{
				OFFSET 0.000000 10.199997 -0.299500
				CHANNELS 3 Xrotation Yrotation Zrotation
				JOINT Spine1
				{
					OFFSET 0.000000 11.900002 -1.516600
					CHANNELS 3 Xrotation Yrotation Zrotation
					JOINT Spine2
					{
						OFFSET 0.000000 13.600006 -2.842500
						CHANNELS 3 Xrotation Yrotation Zrotation
						JOINT Neck_virtual
						{
							OFFSET 0.000000 0.000000 0.000000
							CHANNELS 3 Xrotation Yrotation Zrotation
							JOINT Neck
							{
								OFFSET 0.000000 9.624100 -2.890100
								CHANNELS 3 Xrotation Yrotation Zrotation
								JOINT Head
								{
									OFFSET 0.000000 14.068802 -1.351900
									CHANNELS 3 Xrotation Yrotation Zrotation
									End Site
									{
										OFFSET 0 0 0
									}
								}
							}
						}
						JOINT LeftShoulder_virtual
						{
							OFFSET 0.000000 0.000000 0.000000
							CHANNELS 3 Xrotation Yrotation Zrotation
							JOINT LeftShoulder
							{
								OFFSET 15.263000 10.923401 -0.547700
								CHANNELS 3 Xrotation Yrotation Zrotation
								JOINT LeftArm
								{
									OFFSET 25.438599 -2.830597 -13.032500
									CHANNELS 3 Xrotation Yrotation Zrotation
									JOINT LeftForeArm
									{
										OFFSET 29.960503 0.000000 0.000000
										CHANNELS 3 Xrotation Yrotation Zrotation
										JOINT LeftHand
										{
											OFFSET 27.849251 0.000000 0.000000
											CHANNELS 3 Xrotation Yrotation Zrotation
											End Site
											{
												OFFSET 0 0 0
											}
										}
									}
								}
							}
						}
						JOINT RightShoulder_virtual
						{
							OFFSET 0.000000 0.000000 0.000000
							CHANNELS 3 Xrotation Yrotation Zrotation
							JOINT RightShoulder
							{
								OFFSET -15.263000 10.923401 -0.547700
								CHANNELS 3 Xrotation Yrotation Zrotation
								JOINT RightArm
								{
									OFFSET -25.438599 -2.830597 -13.032500
									CHANNELS 3 Xrotation Yrotation Zrotation
									JOINT RightForeArm
									{
										OFFSET -29.960503 0.000000 0.000000
										CHANNELS 3 Xrotation Yrotation Zrotation
										JOINT RightHand
										{
											OFFSET -27.849251 0.000000 0.000000
											CHANNELS 3 Xrotation Yrotation Zrotation
											End Site
											{
												OFFSET 0 0 0
											}
										}
									}
								}
							}
						}
					}
				}
			}
		}
	}
}
MOTION
Frames: 12
Frame Time: 0.03333333
-2.529503 83.444214 1.048889 0.000000 0.000000 0.000000 9.511085 -61.528195 10.139692 -41.485626 6.898398 29.341618 42.476376 -8.855470 1.133462 -6.285690 -1.073339 -21.274702 0.000000 0.000000 0.000000 9.511085 -61.528195 10.139692 -31.349243 -15.813432 -39.178119 41.611524 6.255672 -4.187889 -15.613018 -2.030436 28.893148 0.000000 0.000000 0.000000 9.511085 -61.528195 10.139692 0.000000 0.000001 0.000000 15.063788 -0.418059 -4.284001 5.872407 0.563923 -2.798210 0.000000 0.000000 0.000000 5.868714 0.648185 -2.860163 -0.718911 0.306356 0.742058 0.000000 0.000000 0.000000 5.868714 0.648185 -2.860163 1.828098 -3.192691 -12.271570 -39.387420 26.350498 -34.911098 0.429376 -46.808451 0.416218 0.000000 0.000000 0.000000 5.868714 0.648185 -2.860163 0.632604 7.257351 8.700391 7.935999 -9.680139 53.429886 -22.867429 36.194672 17.955435 0.000000 0.000000 0.000000 
-2.880560 84.232178 3.153252 0.000000 0.000000 0.000000 9.120259 -62.084637 9.560774 -40.020561 8.076346 28.557002 43.461901 -8.418552 1.169044 -8.610367 -1.018519 -19.938709 0.000000 0.000000 0.000000 9.120259 -62.084637 9.560774 -28.795220 -13.077248 -37.709174 40.401993 2.277919 -3.492162 -11.096131 -2.647451 28.828289 0.000000 0.000000 0.000000 9.120259 -62.084637 9.560774 0.000001 -0.000001 0.000000 15.048520 -0.512465 -4.256920 5.633795 0.369658 -2.696478 0.000000 0.000000 0.000000 5.629852 0.454782 -2.759859 -0.721645 0.381417 0.723051 0.000000 0.000000 0.000000 5.629852 0.454782 -2.759859 1.851097 -3.205589 -12.196502 -39.716601 26.246979 -34.186514 2.759061 -45.717431 2.309616 0.000000 0.000000 0.000000 5.629852 0.454782 -2.759859 0.772931 7.546815 9.119215 2.943609 -7.711103 52.563462 -20.404022 29.266111 13.879041 0.000000 0.000000 0.000000 
-3.241609 84.979668 5.280815 0.000000 0.000000 0.000000 8.759584 -62.612672 8.991336 -38.420268 9.214046 27.666646 44.211343 -7.852067 1.214763 -10.848691 -1.028657 -18.680272 0.000000 0.000000 0.000000 8.759584 -62.612672 8.991336 -26.712387 -9.674477 -36.160090 40.088228 -1.784136 -2.733355 -6.500770 -3.254749 28.177698 0.000000 0.000000 0.000000 8.759584 -62.612672 8.991336 0.000000 0.000000 0.000000 14.995165 -0.756354 -4.124422 5.045687 -0.128995 -2.448174 0.000000 0.000000 0.000000 5.040995 -0.041587 -2.515157 -0.730409 0.574848 0.672139 0.000000 0.000000 0.000000 5.040995 -0.041587 -2.515157 1.873395 -3.331850 -12.086875 -40.480048 25.785484 -33.065089 6.768794 -44.015112 5.583161 0.000000 0.000000 0.000000 5.040995 -0.041587 -2.515157 0.936697 7.766037 9.550946 -1.613908 -5.712809 52.002052 -18.552324 22.793210 10.360611 0.000000 0.000000 0.000000 
-3.610014 85.600533 7.481781 0.000000 0.000000 0.000000 8.635272 -62.989302 8.539051 -37.060921 10.146467 26.748108 45.152567 -7.278276 1.250531 -13.170591 -1.089110 -17.418000 0.000000 0.000000 0.000000 8.635272 -62.989302 8.539051 -25.997701 -3.727484 -33.340312 42.859109 -5.971292 -1.794864 -2.701601 -4.079414 26.031173 0.000000 0.000000 0.000000 8.635272 -62.989302 8.539051 0.000000 -0.000001 0.000000 14.892408 -1.072748 -3.899811 4.298308 -0.805950 -2.138082 0.000000 0.000000 0.000000 4.292549 -0.715840 -2.209657 -0.745287 0.839622 0.597795 0.000000 0.000000 0.000000 4.292549 -0.715840 -2.209657 1.949460 -3.526671 -11.745690 -41.471037 25.115195 -32.276879 9.414629 -42.555968 7.776738 0.000000 0.000000 0.000000 4.292549 -0.715840 -2.209657 1.113366 7.883240 10.023656 -4.540875 -4.564126 51.563721 -17.617643 19.210903 8.374713 0.000000 0.000000 0.000000 
-3.945562 85.848503 9.685070 0.000000 0.000000 0.000000 9.060056 -63.021049 8.413346 -36.714101 10.560249 25.970982 47.176400 -8.041681 1.206932 -15.824172 -0.095388 -15.688743 0.000000 0.000000 0.000000 9.060056 -63.021049 8.413346 -27.811041 2.765392 -28.925370 48.125069 -8.393997 -0.646650 -2.526008 -4.970411 22.761711 0.000000 0.000000 0.000000 9.060056 -63.021049 8.413346 0.000000 0.000001 0.000000 14.728603 -1.391991 -3.616944 3.578988 -1.529665 -1.840882 0.000000 0.000000 0.000000 3.571955 -1.437412 -1.916910 -0.766966 1.129275 0.508627 0.000000 0.000000 0.000000 3.571955 -1.437412 -1.916910 2.040274 -3.836193 -11.401152 -42.772444 24.010686 -31.477559 11.067987 -41.600360 9.292115 0.000000 0.000000 0.000000 3.571955 -1.437412 -1.916910 1.307588 7.982454 10.509478 -6.321593 -4.162955 51.249184 -16.993125 17.954846 7.352933 0.000000 0.000000 0.000000 
-4.254979 85.435555 11.506889 0.000000 0.000000 0.000000 10.070667 -62.653325 8.806305 -37.810910 10.228479 25.625152 50.658468 -8.300886 1.218708 -18.765035 0.080517 -14.397817 0.000000 0.000000 0.000000 10.070667 -62.653325 8.806305 -30.409416 1.123709 -27.444112 50.864624 -6.673298 0.525623 -9.347385 -5.699147 21.564157 0.000000 0.000000 0.000000 10.070667 -62.653325 8.806305 0.000000 0.000001 0.000000 14.488540 -1.684585 -3.391249 3.071490 -2.160673 -1.616177 0.000000 0.000000 0.000000 3.063298 -2.067857 -1.695564 -0.797701 1.397973 0.413182 0.000000 0.000000 0.000000 3.063298 -2.067857 -1.695564 2.111769 -4.306868 -11.073898 -44.224980 22.611529 -30.611764 12.233535 -40.642501 10.518537 0.000000 0.000000 0.000000 3.063298 -2.067857 -1.695564 1.521377 7.911501 10.979705 -7.402148 -4.239067 50.960373 -16.261839 18.118655 6.823187 0.000000 0.000000 0.000000 
-4.614986 84.346146 12.756973 0.000000 0.000000 0.000000 11.753682 -61.925022 9.925738 -40.210024 9.212096 25.673061 55.256586 -8.742575 1.218257 -21.776854 0.162597 -13.496597 0.000000 0.000000 0.000000 11.753682 -61.925022 9.925738 -32.371053 -3.120059 -27.857060 51.417288 -3.425678 1.349364 -16.171555 -6.907121 22.152315 0.000000 0.000000 0.000000 11.753682 -61.925022 9.925738 0.000000 -0.000001 0.000000 14.141646 -1.862065 -3.299562 3.047128 -2.521177 -1.536635 0.000000 0.000000 0.000000 3.038249 -2.431634 -1.616972 -0.855158 1.605510 0.306780 0.000000 0.000000 0.000000 3.038249 -2.431634 -1.616972 2.227848 -4.919968 -10.492770 -45.915769 21.004486 -29.798760 13.200563 -39.399468 11.511845 0.000000 0.000000 0.000000 3.038249 -2.431634 -1.616972 1.761123 7.695959 11.348128 -8.181405 -4.609697 50.913627 -16.012344 19.053284 6.832308 0.000000 0.000000 0.000000 
-4.999310 82.847870 13.463280 0.000000 0.000000 0.000000 14.274530 -60.946154 11.908705 -43.501219 7.740320 25.914165 60.066002 -9.325032 1.191382 -24.461088 0.292480 -12.964349 0.000000 0.000000 0.000000 14.274530 -60.946154 11.908705 -35.161189 -3.801574 -27.625708 54.158083 -0.655896 1.415993 -20.430578 -9.120224 22.115651 0.000000 0.000000 0.000000 14.274530 -60.946154 11.908705 0.000000 0.000002 0.000000 13.642339 -1.973339 -3.271912 3.145205 -2.743446 -1.574853 0.000000 0.000000 0.000000 3.135637 -2.659215 -1.654650 -0.933585 1.791294 0.174779 0.000000 0.000000 0.000000 3.135637 -2.659215 -1.654650 2.358561 -5.754282 -9.944387 -47.869610 19.053760 -28.599196 14.694312 -37.796730 12.664959 0.000000 0.000000 0.000000 3.135637 -2.659215 -1.654650 2.046233 7.304458 11.750552 -8.915647 -4.973143 51.225705 -15.230301 20.100799 6.588202 0.000000 0.000000 0.000000 
-5.298007 81.032639 13.654915 0.000000 0.000000 0.000000 17.681797 -59.771231 14.687598 -47.732900 5.814827 26.317030 64.944020 -9.971827 1.145230 -26.689852 0.492864 -12.776118 0.000000 0.000000 0.000000 17.681797 -59.771231 14.687598 -41.172677 -3.853013 -27.749732 60.004803 2.768154 1.095176 -22.975915 -9.751230 19.832836 0.000000 0.000000 0.000000 17.681797 -59.771231 14.687598 -0.000001 0.000001 0.000000 13.001131 -2.055883 -3.245378 3.118114 -2.924720 -1.689926 0.000000 0.000000 0.000000 3.107533 -2.845798 -1.768496 -1.037812 1.977738 0.019548 0.000000 0.000000 0.000000 3.107533 -2.845798 -1.768496 2.568630 -6.656754 -9.361681 -50.065341 16.695976 -27.276169 18.193590 -35.949307 14.991705 0.000000 0.000000 0.000000 3.107533 -2.845798 -1.768496 2.373511 6.870196 12.191193 -9.782693 -4.944060 51.689465 -14.276257 20.856713 5.970968 0.000000 0.000000 0.000000 
-5.477763 78.870491 13.420723 0.000000 0.000000 0.000000 21.392161 -58.490919 17.755603 -52.656496 3.470399 26.826458 70.058166 -10.687391 1.081236 -28.600377 0.785934 -12.885931 0.000000 0.000000 0.000000 21.392161 -58.490919 17.755603 -46.646818 -3.508213 -28.901870 66.115719 4.447021 1.066925 -25.829344 -9.710466 18.986297 0.000000 0.000000 0.000000 21.392161 -58.490919 17.755603 0.000000 0.000001 0.000000 12.282768 -2.173203 -3.257648 3.015264 -3.131007 -1.888567 0.000000 0.000000 0.000000 3.003407 -3.056348 -1.965669 -1.182851 2.181597 -0.152831 0.000000 0.000000 0.000000 3.003407 -3.056348 -1.965669 2.859462 -7.119583 -8.626258 -52.351433 14.116729 -25.948971 19.530847 -34.715386 15.964164 0.000000 0.000000 0.000000 3.003407 -3.056348 -1.965669 2.716905 6.791220 12.946778 -10.566048 -4.698477 51.779968 -14.130954 22.419954 5.635985 0.000000 0.000000 0.000000 
-5.506003 76.417068 12.885883 0.000000 0.000000 0.000000 25.194334 -57.268821 20.961530 -57.950863 0.838575 27.341406 75.320253 -11.384855 1.006114 -30.267946 1.216761 -13.264451 0.000000 0.000000 0.000000 25.194334 -57.268821 20.961530 -52.385949 -2.760360 -30.468589 72.639035 5.458156 1.175222 -28.902502 -9.132861 18.467479 0.000000 0.000000 0.000000 25.194334 -57.268821 20.961530 -0.000001 0.000001 0.000000 11.537466 -2.305037 -3.275777 2.890338 -3.356420 -2.166635 0.000000 0.000000 0.000000 2.877012 -3.284165 -2.242809 -1.307422 2.417328 -0.374200 0.000000 0.000000 0.000000 2.877012 -3.284165 -2.242809 3.206077 -7.141137 -8.128162 -54.722011 11.296360 -24.703952 19.929821 -33.637302 16.289264 0.000000 0.000000 0.000000 2.877012 -3.284165 -2.242809 3.115600 6.864901 13.521188 -11.234402 -4.231093 52.026169 -14.863999 24.834102 6.146004 0.000000 0.000000 0.000000 
-5.398661 73.792252 12.201767 0.000000 0.000000 0.000000 28.817487 -56.150429 23.923240 -63.359212 -2.061767 27.945463 80.636489 -12.133709 0.915405 -31.725426 1.712185 -13.807760 0.000000 0.000000 0.000000 28.817487 -56.150429 23.923240 -58.537726 -2.047026 -32.264550 79.184282 6.662362 1.305737 -31.661058 -8.020947 17.651036 0.000000 0.000000 0.000000 28.817487 -56.150429 23.923240 0.000000 0.000001 0.000000 10.805140 -2.395437 -3.242206 2.844504 -3.533940 -2.396475 0.000000 0.000000 0.000000 2.829577 -3.463463 -2.472485 -1.418070 2.647662 -0.620165 0.000000 0.000000 0.000000 2.829577 -3.463463 -2.472485 3.610409 -7.086807 -7.754104 -56.961558 8.752785 -23.751706 21.203443 -32.468742 17.159064 0.000000 0.000000 0.000000 2.829577 -3.463464 -2.472485 3.578604 7.046920 14.035109 -11.568583 -3.110712 52.061963 -15.695858 27.711495 6.526942 0.000000 0.000000 0.000000 
